<svg xmlns="http://www.w3.org/2000/svg" xmlns:xlink="http://www.w3.org/1999/xlink" viewBox="0,0,256,256" width="50px" height="50px" fill-rule="nonzero"><g fill="#a8c1e7" fill-rule="nonzero" stroke="none" stroke-width="1" stroke-linecap="butt" stroke-linejoin="miter" stroke-miterlimit="10" stroke-dasharray="" stroke-dashoffset="0" font-family="none" font-weight="none" font-size="none" text-anchor="none" style="mix-blend-mode: normal"><g transform="scale(5.12,5.12)"><path d="M6,3c-0.36876,0.00008 -0.70755,0.20308 -0.88155,0.5282c-0.174,0.32513 -0.15497,0.71962 0.04952,1.02649l13.63086,20.44531l-13.63086,20.44531c-0.20449,0.30687 -0.22352,0.70136 -0.04952,1.02649c0.174,0.32513 0.51279,0.52812 0.88155,0.5282h8.55859c0.32691,0.00006 0.63322,-0.15965 0.82031,-0.42773l9.62109,-13.82227l9.62109,13.82227c0.18709,0.26808 0.4934,0.4278 0.82031,0.42773h8.55859c0.36876,-0.00008 0.70755,-0.20308 0.88155,-0.5282c0.174,-0.32513 0.15497,-0.71962 -0.04952,-1.02649l-13.63086,-20.44531l13.63086,-20.44531c0.20449,-0.30687 0.22352,-0.70136 0.04952,-1.02649c-0.174,-0.32513 -0.51279,-0.52812 -0.88155,-0.5282h-8.55859c-0.32691,-0.00006 -0.63322,0.15965 -0.82031,0.42773l-9.62109,13.82227l-9.62109,-13.82227c-0.18709,-0.26808 -0.4934,-0.4278 -0.82031,-0.42773zM7.86914,5h6.16602l10.14453,14.57227c0.18703,0.26818 0.49335,0.42801 0.82031,0.42801c0.32696,0 0.63328,-0.15982 0.82031,-0.42801l10.14453,-14.57227h6.16602l-12.96289,19.44531c-0.2239,0.3359 -0.2239,0.77347 0,1.10938l12.96289,19.44531h-6.16602l-10.14453,-14.57227c-0.18703,-0.26818 -0.49335,-0.42801 -0.82031,-0.42801c-0.32696,0 -0.63328,0.15982 -0.82031,0.42801l-10.14453,14.57227h-6.16602l12.96289,-19.44531c0.2239,-0.3359 0.2239,-0.77347 0,-1.10938z"></path></g></g></svg>