<svg xmlns="http://www.w3.org/2000/svg" xmlns:xlink="http://www.w3.org/1999/xlink" viewBox="0,0,256,256" width="48px" height="48px" fill-rule="nonzero"><defs><linearGradient x1="35.229" y1="10.169" x2="12.771" y2="32.627" gradientUnits="userSpaceOnUse" id="color-1"><stop offset="0" stop-color="#ff9c9c"></stop><stop offset="0.033" stop-color="#be0000"></stop><stop offset="0.197" stop-color="#ff3d3d"></stop><stop offset="0.362" stop-color="#ff6f6f"></stop><stop offset="0.525" stop-color="#ffb5b5"></stop><stop offset="0.687" stop-color="#ffd6d6"></stop><stop offset="0.846" stop-color="#fbfffd"></stop><stop offset="1" stop-color="#ffffff"></stop></linearGradient></defs><g fill="none" fill-rule="nonzero" stroke="none" stroke-width="none" stroke-linecap="none" stroke-linejoin="miter" stroke-miterlimit="10" stroke-dasharray="" stroke-dashoffset="0" font-family="none" font-weight="none" font-size="none" text-anchor="none" style="mix-blend-mode: normal"><g transform="scale(5.33333,5.33333)"><path d="M39.587,20.983c0,-8.608 -6.979,-15.587 -15.587,-15.587c-8.608,0 -15.587,6.979 -15.587,15.587c0,3.863 1.413,7.39 3.74,10.113c0,0 7.397,8.41 9.77,10.674c1.166,1.111 2.988,1.111 4.153,0c2.764,-2.637 9.77,-10.674 9.77,-10.674c2.328,-2.722 3.741,-6.25 3.741,-10.113z" fill="url(#color-1)" stroke="none" stroke-width="1" stroke-linecap="butt"></path><circle cx="24" cy="21" r="4.5" fill="#ffffff" stroke="#8b0000" stroke-width="3" stroke-linecap="butt"></circle><path d="M35.779,31.057c2.316,-2.708 3.721,-6.216 3.721,-10.057c0,-8.56 -6.94,-15.5 -15.5,-15.5c-3.013,0 -5.825,0.86 -8.205,2.347" fill="none" stroke="#8b0000" stroke-width="3" stroke-linecap="round"></path><path d="M10.371,13.612c-1.193,2.196 -1.871,4.713 -1.871,7.388c0,3.841 1.405,7.349 3.719,10.057c0,0 7.356,8.363 9.715,10.614c1.159,1.105 2.971,1.105 4.13,0c1.471,-1.403 3.241,-3.331 5.414,-5.762" fill="none" stroke="#8b0000" stroke-width="3" stroke-linecap="round"></path></g></g></svg>